<?xml version="1.0" encoding="UTF-8" standalone="no"?>
<svg
   width="591px"
   height="216px"
   viewBox="0 0 591 216"
   version="1.1"
   id="svg912"
   sodipodi:docname="blogBackgroundNew.svg"
   inkscape:version="1.1.1 (c3084ef, 2021-09-22)"
   xmlns:inkscape="http://www.inkscape.org/namespaces/inkscape"
   xmlns:sodipodi="http://sodipodi.sourceforge.net/DTD/sodipodi-0.dtd"
   xmlns="http://www.w3.org/2000/svg"
   xmlns:svg="http://www.w3.org/2000/svg"
   xmlns:rdf="http://www.w3.org/1999/02/22-rdf-syntax-ns#"
   xmlns:cc="http://creativecommons.org/ns#"
   xmlns:dc="http://purl.org/dc/elements/1.1/">
  <defs
     id="defs916" />
  <sodipodi:namedview
     id="namedview914"
     pagecolor="#ffffff"
     bordercolor="#666666"
     borderopacity="1.0"
     inkscape:pageshadow="2"
     inkscape:pageopacity="0.0"
     inkscape:pagecheckerboard="0"
     showgrid="false"
     inkscape:zoom="1.2673435"
     inkscape:cx="450.94326"
     inkscape:cy="128.22096"
     inkscape:window-width="1312"
     inkscape:window-height="847"
     inkscape:window-x="0"
     inkscape:window-y="25"
     inkscape:window-maximized="0"
     inkscape:current-layer="页面-1" />
  <!-- Generator: Sketch 60.1 (88133) - https://sketch.com -->
  <title
     id="title879">编组</title>
  <desc
     id="desc881">Created with Sketch.</desc>
  <g
     id="页面-1"
     stroke="none"
     stroke-width="1"
     fill="none"
     fill-rule="evenodd">
    <g
       id="编组">
      <g
         id="wave"
         fill="#01675D"
         fill-rule="nonzero">
        <path
           d="M0,0 C2.67421557,4.18109021 85.5634149,39.2122375 153.268814,55 C180.145198,61.2671216 204.588828,58.8355437 230.038841,64.2814509 C256.762973,70 265.383617,79 282.944616,94 C294.517436,106.152179 296.04181,107.793871 303,113 C306.920979,115.933683 312.041579,120.471973 322.948817,127.5 C333.121538,134.054744 369.441841,147 381.72092,149 C394,151 398,152.5 417.320942,152.367321 C436.641885,152.234643 446.200716,159.254873 460.027757,163.017608 C495.344342,172.628264 524.707406,186.430223 543,194.7 L591,216 L591,0 L543,0 C495,0 399,0 303,0"
           id="路径"
           style="fill:#ff6600" />
      </g>
      <g
         id="dog"
         transform="translate(443.000000, 120.500000) scale(-1, 1) translate(-443.000000, -120.500000) translate(363.000000, 39.000000)" />
    </g>
    <path
       style="fill:#f9f9f9;stroke-width:0.53088"
       d="m 500.65085,123.92229 c 19.65024,5.50761 37.31802,5.25471 55.9182,-0.80042 7.70906,-2.50962 19.45958,-8.22321 20.09306,-9.77008 0.0989,-0.24142 -4.20955,-0.16957 -9.57428,0.15968 -15.69207,0.96309 -24.19067,-0.13585 -36.62497,-4.73596 -8.97888,-3.32177 -13.87993,-5.95645 -19.33789,-10.395579 -4.28446,-3.48466 -7.4235,-6.9121 -7.08578,-7.73675 0.13751,-0.33578 1.09916,-0.71951 2.137,-0.85274 5.11041,-0.65603 17.48147,-4.92948 30.888,-10.66994 15.94573,-6.8277 48.23999,-22.77649 47.85975,-23.635946 -0.0871,-0.196848 -5.72492,1.146751 -12.52851,2.985765 -19.60713,5.299811 -44.28803,10.703911 -45.88975,10.047971 -0.63946,-0.26188 0.81933,-1.11423 6.31134,-3.68765 9.40937,-4.409003 38.08622,-20.633047 37.76266,-21.364383 -0.0915,-0.206722 -4.50554,0.988995 -9.80908,2.657148 -19.8826,6.253785 -64.49756,17.325135 -66.50441,16.503285 -0.51346,-0.21028 -0.67757,-1.372715 -0.48458,-3.432308 1.61677,-17.253179 12.29773,-34.205638 28.74452,-45.622278 2.05092,-1.423651 3.66773,-2.726805 3.59292,-2.895893 -0.40135,-0.9071783 -14.03997,2.759849 -22.21411,5.972732 -14.70485,5.779797 -25.20989,13.186259 -33.50738,23.62397 -3.07179,3.864122 -3.60027,4.852926 -6.87212,12.857874 -3.36695,8.237416 -4.201,11.403573 -4.24247,16.103313 -0.003,0.39644 -1.7789,1.76545 -3.94533,3.04224 -7.78383,4.58746 -14.60574,11.55986 -17.01194,17.38722 -1.21977,2.95473 -1.90473,7.20214 -1.20707,7.48785 0.26319,0.10778 2.03131,-0.49682 3.92915,-1.34355 4.31181,-1.92375 9.05084,-2.59015 13.59607,-1.91188 5.02623,0.75006 7.9092,2.69842 14.70055,9.934869 6.56618,6.99651 9.50556,9.53405 14.95634,12.9117 3.65625,2.26566 12.19445,6.01499 16.35011,7.17974 z"
       id="path2347" />
  </g>
  <metadata
     id="metadata2535">
    <rdf:RDF>
      <cc:Work
         rdf:about="">
        <dc:title>编组</dc:title>
      </cc:Work>
    </rdf:RDF>
  </metadata>
</svg>
